<?xml version="1.0" encoding="utf-8"?>
<!-- Generator: Adobe Illustrator 16.0.0, SVG Export Plug-In . SVG Version: 6.00 Build 0)  -->
<!DOCTYPE svg PUBLIC "-//W3C//DTD SVG 1.1//EN" "http://www.w3.org/Graphics/SVG/1.1/DTD/svg11.dtd">
<svg version="1.1" id="Layer_1" xmlns="http://www.w3.org/2000/svg" xmlns:xlink="http://www.w3.org/1999/xlink" x="0px" y="0px"
	 width="265px" height="125px" viewBox="0 0 265 125" enable-background="new 0 0 265 125" xml:space="preserve">
<g>
	<path fill="#808184" d="M2.885,28.44v-0.06c0-5.97,4.47-10.86,10.83-10.86c3.87,0,6.209,1.35,8.22,3.27l-2.37,2.73
		c-1.68-1.56-3.48-2.61-5.88-2.61c-4.02,0-6.93,3.3-6.93,7.41v0.06c0,4.11,2.91,7.47,6.93,7.47c2.58,0,4.23-1.05,6.03-2.73l2.37,2.4
		c-2.19,2.28-4.59,3.72-8.52,3.72C7.445,39.24,2.885,34.47,2.885,28.44z"/>
	<path fill="#808184" d="M25.955,17.881h3.69v8.729h10.02v-8.729h3.69V38.88h-3.69v-8.85h-10.02v8.85h-3.69V17.881z"/>
	<path fill="#808184" d="M48.964,17.881h3.69V38.88h-3.69V17.881z"/>
	<path fill="#808184" d="M57.334,28.44v-0.06c0-5.97,4.47-10.86,10.83-10.86c3.87,0,6.209,1.35,8.22,3.27l-2.37,2.73
		c-1.68-1.56-3.48-2.61-5.88-2.61c-4.02,0-6.93,3.3-6.93,7.41v0.06c0,4.11,2.91,7.47,6.93,7.47c2.58,0,4.23-1.05,6.03-2.73l2.37,2.4
		c-2.19,2.28-4.59,3.72-8.52,3.72C61.894,39.24,57.334,34.47,57.334,28.44z"/>
	<path fill="#808184" d="M87.844,17.731h3.42l9.24,21.149h-3.9l-2.13-5.07h-9.93l-2.16,5.07h-3.78L87.844,17.731z M93.124,30.54
		l-3.63-8.399l-3.6,8.399H93.124z"/>
	<path fill="#808184" d="M101.883,28.44v-0.06c0-5.88,4.5-10.86,10.83-10.86c3.66,0,5.909,1.02,8.069,2.85l-2.34,2.79
		c-1.62-1.38-3.21-2.25-5.88-2.25c-3.869,0-6.81,3.39-6.81,7.41v0.06c0,4.32,2.85,7.5,7.14,7.5c1.98,0,3.78-0.63,5.07-1.59v-3.93
		h-5.37v-3.21h8.939v8.82c-2.069,1.77-5.04,3.27-8.76,3.27C106.204,39.24,101.883,34.56,101.883,28.44z"/>
	<path fill="#808184" d="M125.404,28.44v-0.06c0-5.91,4.561-10.86,11.01-10.86c6.45,0,10.95,4.89,10.95,10.8v0.06
		c0,5.91-4.561,10.86-11.009,10.86C129.904,39.24,125.404,34.35,125.404,28.44z M143.494,28.44v-0.06c0-4.08-2.971-7.47-7.14-7.47
		c-4.17,0-7.08,3.33-7.08,7.41v0.06c0,4.08,2.97,7.47,7.14,7.47C140.584,35.85,143.494,32.52,143.494,28.44z"/>
	<path fill="#808184" d="M4.025,47.881h3.69V68.88h-3.69V47.881z"/>
	<path fill="#808184" d="M13.325,47.881h3.42l11.25,14.521V47.881h3.63V68.88h-3.09l-11.58-14.94v14.94h-3.63V47.881z"/>
	<path fill="#808184" d="M37.024,47.881h3.42l11.25,14.521V47.881h3.63V68.88h-3.09l-11.58-14.94v14.94h-3.63V47.881z"/>
	<path fill="#808184" d="M59.794,58.439v-0.061c0-5.908,4.56-10.858,11.009-10.858s10.95,4.89,10.95,10.8v0.059
		c0,5.911-4.56,10.862-11.01,10.862C64.294,69.241,59.794,64.351,59.794,58.439z M77.884,58.439v-0.061
		c0-4.078-2.97-7.469-7.14-7.469c-4.169,0-7.08,3.331-7.08,7.41v0.059c0,4.081,2.97,7.472,7.14,7.472
		C74.974,65.851,77.884,62.521,77.884,58.439z"/>
	<path fill="#808184" d="M83.134,47.881h4.08l6.33,16.14l6.3-16.14h3.99L95.104,69.03h-3.24L83.134,47.881z"/>
	<path fill="#808184" d="M111.875,47.73h3.42l9.239,21.149h-3.899l-2.13-5.068h-9.93l-2.16,5.068h-3.779L111.875,47.73z
		 M117.154,60.54l-3.63-8.399l-3.6,8.399H117.154z"/>
	<path fill="#808184" d="M130.593,51.301h-6.659v-3.42h17.039v3.42h-6.66V68.88h-3.72V51.301z"/>
	<path fill="#808184" d="M145.084,47.881h3.689V68.88h-3.689V47.881z"/>
	<path fill="#808184" d="M153.453,58.439v-0.061c0-5.908,4.561-10.858,11.01-10.858c6.451,0,10.951,4.89,10.951,10.8v0.059
		c0,5.911-4.561,10.862-11.01,10.862C157.953,69.241,153.453,64.351,153.453,58.439z M171.543,58.439v-0.061
		c0-4.078-2.969-7.469-7.139-7.469s-7.08,3.331-7.08,7.41v0.059c0,4.081,2.969,7.472,7.139,7.472S171.543,62.521,171.543,58.439z"/>
	<path fill="#808184" d="M179.883,47.881h3.42l11.25,14.521V47.881h3.629V68.88h-3.09l-11.578-14.94v14.94h-3.631V47.881z"/>
	<path fill="#808184" d="M3.815,77.881h15.569v3.299H7.505v5.461h10.53v3.299H7.505v5.641h12.03v3.299H3.815V77.881z"/>
	<path fill="#808184" d="M29.975,88.199l-7.35-10.318h4.35l5.22,7.529l5.25-7.529h4.229l-7.319,10.26l7.62,10.738h-4.35l-5.52-7.949
		l-5.55,7.949h-4.23L29.975,88.199z"/>
	<path fill="#808184" d="M43.355,88.439v-0.061c0-5.969,4.47-10.859,10.83-10.859c3.87,0,6.209,1.352,8.22,3.271l-2.37,2.729
		c-1.68-1.559-3.48-2.609-5.88-2.609c-4.02,0-6.93,3.301-6.93,7.41v0.059c0,4.111,2.91,7.471,6.93,7.471
		c2.58,0,4.23-1.051,6.03-2.73l2.37,2.4c-2.19,2.279-4.59,3.721-8.52,3.721C47.915,99.24,43.355,94.469,43.355,88.439z"/>
	<path fill="#808184" d="M66.425,77.881h3.69v8.729h10.02v-8.729h3.69v20.998h-3.69v-8.85h-10.02v8.85h-3.69V77.881z"/>
	<path fill="#808184" d="M96.665,77.73h3.42l9.239,21.148h-3.899l-2.13-5.068h-9.93l-2.16,5.068h-3.78L96.665,77.73z
		 M101.944,90.539l-3.629-8.398l-3.6,8.398H101.944z"/>
	<path fill="#808184" d="M112.924,77.881h3.42l11.249,14.52v-14.52h3.63v20.998h-3.09l-11.579-14.939v14.939h-3.63V77.881z"/>
	<path fill="#808184" d="M135.694,88.439v-0.061c0-5.879,4.5-10.859,10.83-10.859c3.66,0,5.91,1.021,8.07,2.852l-2.34,2.789
		c-1.621-1.381-3.211-2.25-5.881-2.25c-3.869,0-6.809,3.391-6.809,7.41v0.059c0,4.32,2.85,7.5,7.139,7.5
		c1.98,0,3.781-0.629,5.07-1.59v-3.93h-5.369V87.15h8.939v8.818c-2.07,1.771-5.041,3.271-8.76,3.271
		C140.014,99.24,135.694,94.561,135.694,88.439z"/>
	<path fill="#808184" d="M160.145,77.881h15.568v3.299h-11.879v5.461h10.529v3.299h-10.529v5.641h12.029v3.299h-15.719V77.881z"/>
	<path fill="#808184" d="M4.354,116.834h1.419l2.999,7.045H7.162l-0.64-1.568H3.564l-0.64,1.568H1.355L4.354,116.834z
		 M5.973,120.951l-0.93-2.27l-0.929,2.27H5.973z"/>
	<path fill="#808184" d="M12.084,118.303H9.955v-1.42h5.797v1.42h-2.129v5.576h-1.539V118.303z"/>
	<path fill="#808184" d="M24.564,118.303h-2.129v-1.42h5.797v1.42h-2.129v5.576h-1.539V118.303z"/>
	<path fill="#808184" d="M30.915,116.883h1.54v2.77h2.838v-2.77h1.539v6.996h-1.539v-2.809h-2.838v2.809h-1.54V116.883z"/>
	<path fill="#808184" d="M40.014,116.883h5.277v1.369h-3.748v1.42h3.298v1.369h-3.298v1.469h3.798v1.369h-5.327V116.883z"/>
	<path fill="#808184" d="M52.604,120.881v-3.998h1.539v3.959c0,1.139,0.57,1.729,1.509,1.729s1.509-0.57,1.509-1.68v-4.008h1.539
		v3.949c0,2.117-1.189,3.158-3.068,3.158S52.604,122.939,52.604,120.881z"/>
	<path fill="#808184" d="M61.774,116.883h1.419l3.278,4.309v-4.309h1.519v6.996h-1.309l-3.388-4.447v4.447h-1.52V116.883z"/>
	<path fill="#808184" d="M71.244,116.883h1.539v6.996h-1.539V116.883z"/>
	<path fill="#808184" d="M75.435,116.883h1.699l1.829,4.928l1.829-4.928h1.659l-2.828,7.047h-1.359L75.435,116.883z"/>
	<path fill="#808184" d="M85.034,116.883h5.277v1.369h-3.748v1.42h3.298v1.369h-3.298v1.469h3.798v1.369h-5.327V116.883z"/>
	<path fill="#808184" d="M93.234,116.883h3.198c0.89,0,1.579,0.25,2.039,0.711c0.39,0.389,0.6,0.939,0.6,1.598v0.021
		c0,1.129-0.609,1.838-1.499,2.168l1.709,2.498h-1.799l-1.5-2.238h-0.02h-1.189v2.238h-1.54V116.883z M96.333,120.281
		c0.75,0,1.179-0.4,1.179-0.99v-0.02c0-0.66-0.46-0.998-1.209-0.998h-1.529v2.008H96.333z"/>
	<path fill="#808184" d="M101.484,122.859l0.91-1.088c0.63,0.52,1.289,0.848,2.089,0.848c0.63,0,1.009-0.248,1.009-0.658v-0.02
		c0-0.391-0.239-0.59-1.409-0.891c-1.409-0.359-2.318-0.75-2.318-2.139v-0.02c0-1.27,1.02-2.109,2.448-2.109
		c1.02,0,1.89,0.32,2.599,0.889l-0.799,1.16c-0.62-0.43-1.229-0.689-1.819-0.689s-0.899,0.27-0.899,0.609v0.02
		c0,0.461,0.3,0.611,1.509,0.92c1.42,0.369,2.219,0.879,2.219,2.1v0.02c0,1.389-1.06,2.168-2.568,2.168
		C103.393,123.979,102.324,123.609,101.484,122.859z"/>
	<path fill="#808184" d="M109.934,116.883h1.539v6.996h-1.539V116.883z"/>
	<path fill="#808184" d="M116.353,118.303h-2.129v-1.42h5.797v1.42h-2.129v5.576h-1.539V118.303z"/>
	<path fill="#808184" d="M124.673,121.121l-2.688-4.238h1.799l1.669,2.809l1.699-2.809h1.749l-2.688,4.209v2.787h-1.539V121.121z"/>
	<path fill="#808184" d="M135.553,120.4v-0.02c0-1.988,1.569-3.617,3.728-3.617c2.158,0,3.709,1.609,3.709,3.598v0.02
		c0,1.99-1.57,3.619-3.729,3.619C137.103,124,135.553,122.391,135.553,120.4z M141.381,120.4v-0.02c0-1.199-0.881-2.199-2.119-2.199
		c-1.24,0-2.099,0.98-2.099,2.18v0.02c0,1.199,0.88,2.199,2.119,2.199C140.521,122.58,141.381,121.602,141.381,120.4z"/>
	<path fill="#808184" d="M145.863,116.883h5.328v1.4h-3.789v1.488h3.338v1.398h-3.338v2.709h-1.539V116.883z"/>
	<path fill="#808184" d="M158.113,120.4v-0.02c0-1.988,1.5-3.617,3.648-3.617c1.318,0,2.107,0.439,2.758,1.078l-0.979,1.131
		c-0.541-0.49-1.09-0.791-1.789-0.791c-1.18,0-2.029,0.98-2.029,2.18v0.02c0,1.199,0.83,2.199,2.029,2.199
		c0.799,0,1.289-0.32,1.838-0.82l0.98,0.99c-0.721,0.77-1.52,1.25-2.869,1.25C159.643,124,158.113,122.41,158.113,120.4z"/>
	<path fill="#808184" d="M167.303,116.883h1.539v2.77h2.838v-2.77h1.539v6.996h-1.539v-2.809h-2.838v2.809h-1.539V116.883z"/>
	<path fill="#808184" d="M176.473,116.883h1.539v6.996h-1.539V116.883z"/>
	<path fill="#808184" d="M180.953,120.4v-0.02c0-1.988,1.5-3.617,3.648-3.617c1.318,0,2.107,0.439,2.758,1.078l-0.979,1.131
		c-0.541-0.49-1.09-0.791-1.789-0.791c-1.18,0-2.029,0.98-2.029,2.18v0.02c0,1.199,0.83,2.199,2.029,2.199
		c0.799,0,1.289-0.32,1.838-0.82l0.98,0.99c-0.721,0.77-1.52,1.25-2.869,1.25C182.482,124,180.953,122.41,180.953,120.4z"/>
	<path fill="#808184" d="M192.541,116.834h1.42l2.998,7.045h-1.609l-0.639-1.568h-2.959l-0.641,1.568h-1.568L192.541,116.834z
		 M194.16,120.951l-0.93-2.27l-0.93,2.27H194.16z"/>
	<path fill="#808184" d="M198.783,120.4v-0.02c0-1.988,1.549-3.617,3.668-3.617c1.26,0,2.02,0.34,2.748,0.959l-0.969,1.17
		c-0.541-0.449-1.02-0.711-1.83-0.711c-1.119,0-2.008,0.99-2.008,2.18v0.02c0,1.279,0.879,2.219,2.119,2.219
		c0.559,0,1.059-0.139,1.449-0.42v-0.998h-1.551v-1.33h3.039v3.039C204.73,123.5,203.74,124,202.461,124
		C200.283,124,198.783,122.471,198.783,120.4z"/>
	<path fill="#808184" d="M208.123,120.4v-0.02c0-1.988,1.568-3.617,3.729-3.617c2.158,0,3.707,1.609,3.707,3.598v0.02
		c0,1.99-1.568,3.619-3.729,3.619C209.672,124,208.123,122.391,208.123,120.4z M213.949,120.4v-0.02
		c0-1.199-0.879-2.199-2.119-2.199c-1.238,0-2.098,0.98-2.098,2.18v0.02c0,1.199,0.879,2.199,2.119,2.199
		C213.09,122.58,213.949,121.602,213.949,120.4z"/>
</g>
<rect x="227.803" y="17.919" fill="none" stroke="#808184" stroke-linecap="square" stroke-miterlimit="10" width="20.707" height="20.707"/>
<polygon fill="#FFFFFF" stroke="#808184" stroke-width="0.5752" stroke-linecap="square" stroke-miterlimit="10" points="
	242.444,3.278 227.803,17.919 248.51,17.919 248.51,38.625 263.15,23.984 263.15,3.278 "/>
<g>
	<polygon fill="#808184" points="242.685,2.775 227.803,17.919 248.51,17.919 248.51,38.625 263.619,23.984 263.545,2.775 	"/>
</g>
<polygon fill="none" stroke="#808184" stroke-linecap="square" stroke-miterlimit="10" points="227.803,17.919 227.803,38.625 
	207.097,38.625 "/>
<polyline fill="none" stroke="#808184" stroke-linecap="round" stroke-miterlimit="10" points="227.803,17.919 198.52,17.919 
	213.161,3.277 242.444,3.277 227.803,17.919 213.161,3.277 "/>
<polyline fill="none" stroke="#808184" stroke-linecap="round" stroke-miterlimit="10" points="248.51,38.625 263.151,23.983 
	263.151,53.268 248.51,67.909 248.51,38.625 263.151,53.268 "/>
<polygon fill="none" stroke="#808184" stroke-linecap="square" stroke-miterlimit="10" points="227.803,38.625 248.51,38.625 
	227.803,59.332 "/>
</svg>
